{"title":"Interstellar 2014 CAMRip XviD MP3 - Idiocracy","uid":11428761,"size":1116831744,"categoryP":"video","categoryS":"movies","magnet":"?xt=urn:btih:ffa31ff9a27ff078be5cbe56089a89f8157270a4&amp;dn=Interstellar+2014+CAMRip+XviD+MP3+-+Idiocracy&amp;tr=udp%3A%2F%2Ftracker.openbittorrent.com%3A80&amp;tr=udp%3A%2F%2Fopen.demonii.com%3A1337&amp;tr=udp%3A%2F%2Ftracker.coppersurfer.tk%3A6969&amp;tr=udp%3A%2F%2Fexodus.desync.com%3A6969","seeders":8,"leechers":0,"uploader":"Satafakap","files":-1,"time":1415695568,"description":"Synopsis / Plot\n\n A group of explorers use a newly discovered wormhole to surpass the limitations on human space travel and conquer an interstellar endeavor.\n\nDirector: Christopher Nolan\nWriters: Jonathan Nolan, Christopher Nolan\nStars: Matthew McConaughey, Anne Hathaway, Jessica Chastain  \n &lt;a href=&quot;\nhttp://www.imdb.com/title/tt0816692/&quot; rel=&quot;nofollow&quot; target=&quot;_NEW&quot;&gt;\nhttp://www.imdb.com/title/tt0816692/&lt;/a&gt;\n\nGeneral\n\nComplete name          : Interstellar.2014.CAMRip.XviD.MP3-Idiocracy.avi\nFormat                 : AVI\nFormat/Info            : Audio Video Interleave\nFile size              : 1.03 GiB\nDuration               : 2h 43mn\nOverall bit rate       : 905 Kbps\nWriting application    : VirtualDubMod 1.5.10.3 | www.virtualdub-fr.org\nWriting library        : VirtualDubMod build 2550/release\nSource                 : Interstellar (2014) HDCAM ENG x264 AAC-CPG - Audio\n\t\t\t H3LL2P4Y @ extratorrent - Video - Thanks!\nSample                 : Yes\n\nVideo\n\nID                                       : 0\nFormat                                   : MPEG-4 Visual\nFormat profile                           : Advanced Simple@L5\nFormat settings, BVOP                    : 2\nFormat settings, QPel                    : No\nFormat settings, GMC                     : No warppoints\nFormat settings, Matrix                  : Default (H.263)\nCodec ID                                 : XVID\nCodec ID/Hint                            : XviD\nDuration                                 : 2h 43mn\nBit rate                                 : 768 Kbps\nWidth                                    : 640 pixels\nHeight                                   : 240 pixels\nDisplay aspect ratio                     : 2.667\nFrame rate                               : 25.000 fps\nColor space                              : YUV\nChroma subsampling                       : 4:2:0\nBit depth                                : 8 bits\nScan type                                : Progressive\nCompression mode                         : Lossy\nBits/(Pixel*Frame)                       : 0.200\nStream size                              : 896 MiB (85%)\nWriting library                          : XviD 1.2.1 (UTC 2008-12-04)\n\nAudio\n\nID                                       : 1\nFormat                                   : MPEG Audio\nFormat version                           : Version 1\nFormat profile                           : Layer 3\nCodec ID                                 : 55\nCodec ID/Hint                            : MP3\nDuration                                 : 2h 43mn\nBit rate mode                            : Constant\nBit rate                                 : 128 Kbps\nChannel(s)                               : 2 channels\nSampling rate                            : 48.0 KHz\nCompression mode                         : Lossy\nStream size                              : 149 MiB (14%)\nAlignment                                : Aligned on interleaves\nInterleave, duration                     : 40 ms (1.00 video frame)\nInterleave, preload duration             : 504 ms\nWriting library                          : LAME3.99r\nEncoding settings                        : -m s -V 4 -q 0 -lowpass 17 -b 128\n\nScreenshots:\n &lt;a href=&quot;\nhttp://i.imgur.com/3vjbgy6.jpg&quot; rel=&quot;nofollow&quot; target=&quot;_NEW&quot;&gt;\nhttp://i.imgur.com/3vjbgy6.jpg&lt;/a&gt;\n &lt;a href=&quot;\nhttp://i.imgur.com/GVhwiJ1.jpg&quot; rel=&quot;nofollow&quot; target=&quot;_NEW&quot;&gt;\nhttp://i.imgur.com/GVhwiJ1.jpg&lt;/a&gt;\n &lt;a href=&quot;\nhttp://i.imgur.com/JoSl4Gv.jpg&quot; rel=&quot;nofollow&quot; target=&quot;_NEW&quot;&gt;\nhttp://i.imgur.com/JoSl4Gv.jpg&lt;/a&gt;\n &lt;a href=&quot;\nhttp://i.imgur.com/V8wBpGg.jpg&quot; rel=&quot;nofollow&quot; target=&quot;_NEW&quot;&gt;\nhttp://i.imgur.com/V8wBpGg.jpg&lt;/a&gt;\n &lt;a href=&quot;\nhttp://i.imgur.com/Dbf7ViQ.jpg&quot; rel=&quot;nofollow&quot; target=&quot;_NEW&quot;&gt;\nhttp://i.imgur.com/Dbf7ViQ.jpg&lt;/a&gt;","torrent":{"xt":"urn:btih:ffa31ff9a27ff078be5cbe56089a89f8157270a4","amp;dn":"Interstellar+2014+CAMRip+XviD+MP3+-+Idiocracy","amp;tr":["udp%3A%2F%2Ftracker.openbittorrent.com%3A80","udp%3A%2F%2Fopen.demonii.com%3A1337","udp%3A%2F%2Ftracker.coppersurfer.tk%3A6969","udp%3A%2F%2Fexodus.desync.com%3A6969"],"infoHash":"ffa31ff9a27ff078be5cbe56089a89f8157270a4","infoHashBuffer":{"type":"Buffer","data":[255,163,31,249,162,127,240,120,190,92,190,86,8,154,137,248,21,114,112,164]},"announce":[],"urlList":[]}}